PathFileType	4	(X/Y/Z)	/Users/itak/Documents/Research/Walk-IL/dataset/trc/00408_00012.trc
DataRate	CameraRate	NumFrames	NumMarkers	Units	OrigDataRate	OrigDataStartFrame	OrigNumFrames
100.000000	100.000000	4	55	mm	100.000000	84	673
Frame#	Time	RPSI			LPSI			L3			STRN			T10			C7			CLAV			RBAK			LBAK			LSHO			LUPA			LAEL			LAOL			LWTS			LWPS			LFRA			LHPS			LHTS			RSHO			RUPA			RAEL			RAOL			RWTS			RWPS			RFRA			RIFD			RHPS			RBHD			LFHD			RFHD			LBHD			LHIP			RHIP			RASI			LASI			LKNE			LTHI			LANK			LTIP			LTOE			LMT1			LMT5			LHEE			RKNE			RTHI			RANK			RTIP			RTOE			RMT1			RMT5			RHEE			RHTS			LIFD			*53			*54			
		X1	Y1	Z1	X2	Y2	Z2	X3	Y3	Z3	X4	Y4	Z4	X5	Y5	Z5	X6	Y6	Z6	X7	Y7	Z7	X8	Y8	Z8	X9	Y9	Z9	X10	Y10	Z10	X11	Y11	Z11	X12	Y12	Z12	X13	Y13	Z13	X14	Y14	Z14	X15	Y15	Z15	X16	Y16	Z16	X17	Y17	Z17	X18	Y18	Z18	X19	Y19	Z19	X20	Y20	Z20	X21	Y21	Z21	X22	Y22	Z22	X23	Y23	Z23	X24	Y24	Z24	X25	Y25	Z25	X26	Y26	Z26	X27	Y27	Z27	X28	Y28	Z28	X29	Y29	Z29	X30	Y30	Z30	X31	Y31	Z31	X32	Y32	Z32	X33	Y33	Z33	X34	Y34	Z34	X35	Y35	Z35	X36	Y36	Z36	X37	Y37	Z37	X38	Y38	Z38	X39	Y39	Z39	X40	Y40	Z40	X41	Y41	Z41	X42	Y42	Z42	X43	Y43	Z43	X44	Y44	Z44	X45	Y45	Z45	X46	Y46	Z46	X47	Y47	Z47	X48	Y48	Z48	X49	Y49	Z49	X50	Y50	Z50	X51	Y51	Z51	X52	Y52	Z52	X53	Y53	Z53	X54	Y54	Z54	X55	Y55	Z55	

85	0.84	158.3429565429688	969.64306640625	1106.533569335938	157.2208557128906	969.692138671875	1237.62451171875	152.6892547607422	1053.418579101562	1171.250244140625	-97.55899047851562	1190.995727539062	1144.846801757812	153.0605163574219	1156.739868164062	1180.144897460938	94.15054321289062	1401.549072265625	1179.35791015625	-53.1304817199707	1312.840942382812	1147.327026367188	159.4755859375	1259.47314453125	1126.017700195312	91.53908538818359	1367.43359375	1285.6767578125	-3.848505973815918	1379.420166015625	1315.834228515625	-1.357728600502014	1269.13427734375	1397.501953125	-47.93014907836914	1074.122436523438	1427.209594726562	27.27399444580078	1046.136840820312	1398.212280273438	-150.5401306152344	892.7553100585938	1313.614379882812	-144.5457458496094	862.7667846679688	1390.59375	-89.0382080078125	977.4259643554688	1417.3564453125	-164.0155639648438	784.1299438476562	1361.87353515625	-188.6447448730469	797.068603515625	1304.600219726562	67.62654113769531	1375.476318359375	1014.047180175781	103.2929077148438	1315.362548828125	962.9149169921875	161.1098327636719	1060.748657226562	925.8035888671875	159.5149383544922	1050.755126953125	1019.976867675781	70.77708435058594	825.7811889648438	925.046875	123.5164642333984	826.9010009765625	873.1869506835938	152.3006896972656	993.775390625	902.8626708984375	111.0504837036133	656.1433715820312	916.39404296875	137.6697998046875	738.949462890625	869.5747680664062	86.18862915039062	1567.521362304688	1077.715576171875	-83.50020599365234	1601.829833984375	1176.028442382812	-44.11708450317383	1591.009399414062	1058.27099609375	50.01307678222656	1576.045043945312	1234.620483398438	69.37133026123047	955.1803588867188	1350.044067382812	78.12391662597656	949.2389526367188	992.4197998046875	-55.50802612304688	956.4524536132812	1047.9609375	-46.94952392578125	945.8902587890625	1311.135131835938	86.86869049072266	461.0914001464844	1330.134033203125	73.37016296386719	603.9888305664062	1340.360595703125	248.2254791259766	38.66608810424805	1269.63525390625	172.973876953125	239.8630981445312	1312.316528320312	26.87885093688965	47.38093566894531	1237.487060546875	99.41639709472656	46.55956649780273	1195.532958984375	124.4874420166016	40.80949020385742	1300.03662109375	277.7339172363281	36.77962493896484	1208.183227539062	-148.1173248291016	502.2268676757812	1015.021789550781	-61.92637252807617	749.0558471679688	991.1203002929688	-171.6619262695312	70.64557647705078	1053.577758789062	-179.4339752197266	377.5689086914062	1024.0966796875	-347.0167541503906	92.67481231689453	1093.2470703125	-281.288330078125	81.97994232177734	1131.874877929688	-253.5619659423828	67.83628845214844	1036.379272460938	-109.5314025878906	53.06089401245117	1116.905883789062	78.39165496826172	719.9133911132812	900.673583984375	-174.4715423583984	715.641357421875	1289.351440429688	nan	nan	nan	nan	nan	nan	
86	0.85	152.5353698730469	967.9110717773438	1105.66650390625	151.1082000732422	968.3972778320312	1236.716186523438	146.7166290283203	1051.684936523438	1170.336791992188	-103.1923675537109	1189.38720703125	1143.37158203125	147.212158203125	1155.017700195312	1179.2861328125	88.42511749267578	1399.881469726562	1178.2939453125	-58.74374771118164	1311.211669921875	1145.87841796875	153.8786315917969	1257.757690429688	1125.359008789062	85.62078094482422	1365.860473632812	1284.584716796875	-9.872722625732422	1377.988891601562	1314.49462890625	-7.593517303466797	1267.8818359375	1396.390014648438	-55.13877868652344	1073.10009765625	1426.488403320312	19.82497024536133	1044.726684570312	1397.523071289062	-160.8938446044922	895.36083984375	1310.80029296875	-155.1949768066406	864.04150390625	1387.239868164062	-97.5701904296875	977.3526000976562	1415.754150390625	-176.2996978759766	786.2449951171875	1357.218017578125	-200.8988037109375	800.4913940429688	1300.198120117188	62.52179718017578	1373.71435546875	1012.980041503906	98.68727874755859	1313.69921875	962.2145385742188	158.8624114990234	1059.390625	927.0621948242188	156.12744140625	1049.839477539062	1021.187622070312	72.40809631347656	822.9178466796875	926.103271484375	125.7139282226562	824.9649047851562	874.7783203125	151.2489929199219	992.3526000976562	904.2070922851562	117.075927734375	654.1932373046875	919.0956420898438	142.0091400146484	737.3082885742188	871.8632202148438	80.83960723876953	1565.833740234375	1076.748657226562	-89.46029663085938	1600.097412109375	1173.920043945312	-49.36044311523438	1589.212280273438	1056.549682617188	43.61156845092773	1574.517211914062	1233.381225585938	62.78726196289062	954.1084594726562	1349.00390625	72.07166290283203	947.4404907226562	991.0211791992188	-61.33752059936523	954.7172241210938	1046.692016601562	-53.30287551879883	944.5616455078125	1309.753051757812	83.86607360839844	460.4359741210938	1329.688354492188	68.88766479492188	603.227783203125	1339.764282226562	248.1192932128906	38.78697967529297	1269.608032226562	171.6181030273438	239.8699798583984	1312.205444335938	26.61494827270508	47.07039260864258	1237.62109375	99.23965454101562	46.53155136108398	1195.690063476562	124.4660339355469	40.74601745605469	1300.093627929688	277.65234375	37.02616119384766	1208.158569335938	-152.3696746826172	499.6966857910156	1013.348266601562	-66.75160980224609	747.0657958984375	989.72265625	-190.8289642333984	69.32295227050781	1052.032348632812	-187.5689697265625	376.2410888671875	1022.398986816406	-365.77197265625	97.60087585449219	1090.290283203125	-300.6789245605469	84.63232421875	1129.418701171875	-272.6868591308594	69.45468902587891	1034.182495117188	-129.8710327148438	49.55052947998047	1115.836181640625	82.84499359130859	717.0435180664062	902.5653076171875	-189.0235290527344	719.5182495117188	1283.716674804688	nan	nan	nan	nan	nan	nan	
87	0.86	146.5855255126953	966.0454711914062	1104.702392578125	144.8006134033203	967.0049438476562	1235.71875	140.5365600585938	1049.837890625	1169.313232421875	-108.9884033203125	1187.665283203125	1141.746337890625	141.1999206542969	1153.172241210938	1178.324340820312	82.53377532958984	1398.10400390625	1177.149169921875	-64.51454162597656	1309.463989257812	1144.304565429688	148.1514282226562	1255.927490234375	1124.606811523438	79.52982330322266	1364.160766601562	1283.409790039062	-16.08145141601562	1376.420532226562	1313.077392578125	-13.9912052154541	1266.451416015625	1395.159790039062	-62.40724563598633	1071.89111328125	1425.640014648438	12.3452787399292	1043.145263671875	1396.680908203125	-171.1549072265625	897.8865356445312	1307.850463867188	-165.9306488037109	865.3280639648438	1383.734619140625	-106.1482086181641	977.14013671875	1414.033325195312	-188.7061157226562	788.3961181640625	1352.463623046875	-213.1786651611328	803.94384765625	1295.715698242188	57.29238510131836	1371.85205078125	1011.820190429688	93.96501159667969	1311.928344726562	961.4301147460938	156.3998413085938	1057.925170898438	928.272216796875	152.4912872314453	1048.7998046875	1022.344299316406	73.62934112548828	820.0947875976562	927.1356811523438	127.5197982788086	823.0179443359375	876.3766479492188	149.9302062988281	990.8452758789062	905.51953125	122.4344024658203	652.3487548828125	921.828125	145.8296813964844	735.6898803710938	874.1871948242188	75.39829254150391	1564.040405273438	1075.731567382812	-95.50847625732422	1598.278686523438	1171.750122070312	-54.69275283813477	1587.331176757812	1054.790893554688	37.11398315429688	1572.855102539062	1232.082763671875	56.04514694213867	952.9793090820312	1347.863525390625	65.78024291992188	945.5057983398438	989.4424438476562	-67.30809783935547	952.842529296875	1045.326538085938	-59.8555793762207	943.1727294921875	1308.273071289062	80.64054870605469	459.7281799316406	1329.145263671875	64.18791198730469	602.4010009765625	1339.101684570312	248.0051116943359	38.93666076660156	1269.588012695312	170.0989990234375	239.8733978271484	1312.062255859375	26.3294792175293	46.76312637329102	1237.755615234375	99.07899475097656	46.47578811645508	1195.794799804688	124.4227676391602	40.67937469482422	1300.147338867188	277.5577087402344	37.29566955566406	1208.155395507812	-156.7992858886719	497.1331481933594	1011.643005371094	-71.74623870849609	744.9461059570312	988.2889404296875	-209.5539093017578	68.35434722900391	1050.26123046875	-195.6764678955078	374.9678344726562	1020.598083496094	-383.9306640625	102.66259765625	1087.04541015625	-319.5652465820312	87.51237487792969	1126.704345703125	-291.2673645019531	71.30783081054688	1031.726928710938	-149.8424377441406	46.52444458007812	1114.560424804688	86.76735687255859	714.2726440429688	904.470703125	-203.3187103271484	723.23681640625	1277.775390625	nan	nan	nan	nan	nan	nan	
88	0.87	140.4938507080078	964.0657958984375	1103.659790039062	138.2912750244141	965.5285034179688	1234.64892578125	134.1501312255859	1047.89892578125	1168.200073242188	-114.9575653076172	1185.851684570312	1139.964477539062	135.0165405273438	1151.226318359375	1177.270385742188	76.47335052490234	1396.235107421875	1175.92138671875	-70.45444488525391	1307.616455078125	1142.601440429688	142.2822113037109	1253.999633789062	1123.765014648438	73.24526977539062	1362.354125976562	1282.147705078125	-22.47644424438477	1374.737670898438	1311.583374023438	-20.5578670501709	1264.85791015625	1393.801391601562	-69.74374389648438	1070.511840820312	1424.647094726562	4.824577808380127	1041.403564453125	1395.66845703125	-181.2921905517578	900.3143920898438	1304.756713867188	-176.7243499755859	866.6085205078125	1380.081909179688	-114.7673568725586	976.7822875976562	1412.181640625	-201.2017822265625	790.5902709960938	1347.627563476562	-225.4956970214844	807.490966796875	1291.212890625	51.94841766357422	1369.902099609375	1010.563720703125	89.12268829345703	1310.062744140625	960.5591430664062	153.7222442626953	1056.364379882812	929.4342041015625	148.5890045166016	1047.643432617188	1023.444213867188	74.41555786132812	817.322998046875	928.1132202148438	128.9246215820312	821.0637817382812	877.972900390625	148.3465881347656	989.260986328125	906.7967529296875	127.0689849853516	650.5914306640625	924.5543823242188	149.1053466796875	734.088134765625	876.5330810546875	69.86276245117188	1562.162109375	1074.663330078125	-101.6495132446289	1596.394775390625	1169.512573242188	-60.12841033935547	1585.385009765625	1052.991088867188	30.53064346313477	1571.076171875	1230.725463867188	49.14530944824219	951.7916259765625	1346.626342773438	59.41360092163086	943.424072265625	987.8112182617188	-73.37347412109375	950.8369140625	1043.860107421875	-66.59918212890625	941.720458984375	1306.705932617188	77.21709442138672	458.986328125	1328.502197265625	59.30391311645508	601.5206909179688	1338.358276367188	247.8851623535156	39.12311172485352	1269.577026367188	168.4452362060547	239.8846130371094	1311.878784179688	26.03496551513672	46.47369384765625	1237.884887695312	98.93393707275391	46.40081024169922	1195.859497070312	124.3544235229492	40.6051139831543	1300.202880859375	277.4497680664062	37.59707260131836	1208.178588867188	-161.4728851318359	494.5846557617188	1009.898986816406	-76.92302703857422	742.7322998046875	986.8109741210938	-227.6961669921875	67.69609069824219	1048.2958984375	-203.759521484375	373.7621154785156	1018.693969726562	-401.405517578125	107.7041015625	1083.448364257812	-337.8631896972656	90.51344299316406	1123.705078125	-309.1553649902344	73.30853271484375	1029.007568359375	-169.2940216064453	43.99165344238281	1113.138427734375	90.10292053222656	711.60546875	906.3460693359375	-217.3580017089844	726.838134765625	1271.5859375	nan	nan	nan	nan	nan	nan	
